<svg width="21" height="17" viewBox="0 0 21 17" fill="none" xmlns="http://www.w3.org/2000/svg">
<path d="M19.177 5.02718C19.3141 4.90418 19.4195 4.74987 19.4842 4.57739C19.5489 4.4049 19.5709 4.21935 19.5485 4.0365C19.531 3.86892 19.4643 3.71028 19.3566 3.58062C19.249 3.45097 19.1054 3.35612 18.9439 3.30807C18.8088 3.43106 18.7047 3.58428 18.6402 3.75519C18.5756 3.9261 18.5524 4.10986 18.5724 4.29146C18.5894 4.46003 18.6559 4.6198 18.7635 4.7507C18.8711 4.8816 19.0149 4.97779 19.177 5.02718V5.02718ZM19.6214 5.42782C19.4727 5.55206 19.356 5.71022 19.2812 5.88896C19.2064 6.06771 19.1757 6.26181 19.1916 6.45492C19.3802 6.47148 19.5703 6.44787 19.7492 6.38564C19.928 6.32341 20.0917 6.22397 20.2294 6.09389C20.367 5.96381 20.4755 5.80603 20.5478 5.63095C20.62 5.45587 20.6543 5.26747 20.6484 5.07817C20.4619 5.053 20.272 5.07147 20.0938 5.13215C19.9155 5.19282 19.7538 5.29403 19.6214 5.42782V5.42782ZM19.0095 6.4185C19.0578 6.24435 19.0568 6.0602 19.0067 5.88657C18.9565 5.71295 18.8591 5.55665 18.7254 5.43511C18.5916 5.31145 18.4267 5.22647 18.2484 5.18926C18.07 5.15205 17.8849 5.16401 17.7128 5.22386C17.6619 5.39722 17.6609 5.58143 17.7098 5.75536C17.7588 5.92929 17.8558 6.0859 17.9896 6.20725C18.125 6.33085 18.2911 6.4157 18.4706 6.45287C18.65 6.49004 18.8362 6.47817 19.0095 6.4185V6.4185ZM19.0167 7.67869C18.8354 7.79307 18.6831 7.94801 18.5718 8.13131C18.4606 8.31461 18.3935 8.52125 18.3757 8.73493C18.576 8.79792 18.7886 8.81161 18.9953 8.77483C19.202 8.73805 19.3968 8.65189 19.5631 8.52368C19.7433 8.40807 19.8947 8.25281 20.0058 8.06976C20.1169 7.88671 20.1847 7.6807 20.2041 7.46745C20.004 7.40257 19.7911 7.3879 19.584 7.42474C19.377 7.46158 19.1822 7.54879 19.0167 7.67869V7.67869ZM18.1863 8.6548C18.2689 8.47407 18.3011 8.27433 18.2793 8.07681C18.2575 7.87929 18.1825 7.69137 18.0625 7.53301C17.9436 7.37562 17.783 7.25468 17.5989 7.18387C17.4148 7.11306 17.2145 7.09522 17.0208 7.13237C16.9341 7.31054 16.8971 7.50884 16.9138 7.7063C16.9305 7.90376 17.0002 8.09305 17.1155 8.25416C17.2367 8.41666 17.4022 8.54085 17.592 8.61189C17.7819 8.68293 17.9882 8.69783 18.1863 8.6548V8.6548ZM18.3903 10.017C18.1675 10.1033 17.9668 10.2384 17.803 10.4124C17.6391 10.5863 17.5162 10.7947 17.4433 11.0222C17.6314 11.1431 17.8472 11.214 18.0703 11.228C18.2934 11.242 18.5164 11.1988 18.7181 11.1024C18.9409 11.016 19.1416 10.8809 19.3054 10.707C19.4693 10.533 19.5921 10.3247 19.6651 10.0971C19.4778 9.97418 19.2618 9.90215 19.0383 9.8881C18.8148 9.87405 18.5914 9.91847 18.3903 10.017ZM16.307 10.1772C16.378 10.3796 16.5071 10.5566 16.6781 10.6862C16.8491 10.8157 17.0544 10.892 17.2685 10.9057C17.4028 10.7253 17.4899 10.5141 17.5217 10.2915C17.5535 10.0688 17.529 9.84171 17.4506 9.63091C17.3782 9.42794 17.2478 9.2507 17.0756 9.1212C16.9034 8.9917 16.6969 8.91564 16.4818 8.90247C16.3468 9.08263 16.2599 9.2942 16.2294 9.51722C16.1988 9.74025 16.2255 9.96739 16.307 10.1772V10.1772ZM17.1155 11.9546C16.8835 12.0147 16.6677 12.1256 16.4837 12.2793C16.2998 12.433 16.1523 12.6256 16.052 12.8433C16.2161 12.9913 16.417 13.0923 16.6336 13.1359C16.8502 13.1795 17.0745 13.164 17.2831 13.091C17.5157 13.0327 17.7325 12.9234 17.9178 12.7709C18.103 12.6185 18.2519 12.4267 18.3539 12.2096C18.1886 12.0611 17.9868 11.9592 17.7692 11.9144C17.5516 11.8696 17.326 11.8835 17.1155 11.9546ZM15.4401 10.5779C15.2825 10.7428 15.1681 10.9442 15.1071 11.1641C15.0461 11.3839 15.0404 11.6155 15.0905 11.8381C15.1314 12.0465 15.2326 12.2384 15.3815 12.3899C15.5304 12.5414 15.7205 12.6459 15.9282 12.6903C16.0808 12.5235 16.1925 12.3235 16.2545 12.106C16.3164 11.8885 16.3269 11.6597 16.2851 11.4374C16.245 11.2267 16.1433 11.0326 15.9929 10.8796C15.8425 10.7266 15.6501 10.6216 15.4401 10.5779V10.5779ZM15.3308 13.7466C15.0731 13.7258 14.814 13.7649 14.5739 13.861C14.3338 13.957 14.1191 14.1074 13.9468 14.3002C14.0316 14.5235 14.1806 14.7167 14.3751 14.8554C14.5695 14.9941 14.8007 15.0722 15.0395 15.0796C15.2978 15.0995 15.5573 15.0592 15.7974 14.9619C16.0376 14.8646 16.2519 14.7129 16.4235 14.5187C16.3368 14.2973 16.1871 14.1062 15.9929 13.9689C15.7987 13.8317 15.5685 13.7544 15.3308 13.7466ZM13.3932 12.8142C13.3431 13.0475 13.3611 13.2903 13.445 13.5138C13.529 13.7372 13.6753 13.9318 13.8667 14.0744C14.0933 13.9433 14.2872 13.7624 14.4336 13.5453C14.58 13.3282 14.6751 13.0807 14.7117 12.8215C14.76 12.5881 14.7411 12.3459 14.6573 12.1228C14.5735 11.8998 14.4282 11.7051 14.2382 11.5613C14.0116 11.6924 13.8177 11.8733 13.6713 12.0904C13.5249 12.3074 13.4298 12.5549 13.3932 12.8142V12.8142ZM12.9998 14.9704C12.717 14.9467 12.4326 14.9897 12.1695 15.096C11.9063 15.2023 11.6718 15.3688 11.4847 15.5822C11.5809 15.8229 11.7451 16.0303 11.9572 16.1791C12.1694 16.3278 12.4203 16.4115 12.6793 16.42C12.963 16.4414 13.2478 16.3973 13.5118 16.2912C13.7757 16.1851 14.0118 16.0198 14.2018 15.8081C14.1051 15.5663 13.9398 15.3582 13.7262 15.2093C13.5126 15.0604 13.2601 14.9774 12.9998 14.9704ZM12.3224 13.9578C12.3785 13.7018 12.3595 13.4351 12.2678 13.1896C12.176 12.9441 12.0154 12.7303 11.8052 12.5738C11.5551 12.7152 11.341 12.9123 11.1793 13.1498C11.0176 13.3873 10.9127 13.6588 10.8728 13.9433C10.8206 14.2003 10.8414 14.4669 10.9328 14.7127C11.0242 14.9586 11.1826 15.174 11.39 15.3346C11.6396 15.1907 11.8532 14.992 12.0147 14.7535C12.1762 14.515 12.2814 14.243 12.3224 13.9578ZM2.54676 4.29146C2.56798 4.10869 2.54535 3.9235 2.48074 3.75122C2.41614 3.57894 2.31142 3.42453 2.17526 3.30078C2.01376 3.34884 1.87013 3.44368 1.76252 3.57334C1.65491 3.70299 1.58814 3.86163 1.57065 4.02922C1.54821 4.21206 1.57027 4.39762 1.63495 4.5701C1.69964 4.74259 1.80503 4.89689 1.94216 5.0199C2.10318 4.97099 2.2463 4.8759 2.35378 4.74641C2.46125 4.61692 2.52835 4.45873 2.54676 4.29146V4.29146ZM1.92759 6.45492C1.94348 6.26181 1.91274 6.06771 1.83795 5.88896C1.76315 5.71022 1.6465 5.55206 1.49781 5.42782C1.36225 5.28973 1.19571 5.18598 1.01201 5.12517C0.828308 5.06436 0.632751 5.04824 0.441575 5.07817C0.425681 5.27128 0.456426 5.46538 0.53122 5.64413C0.606014 5.82287 0.722667 5.98103 0.871354 6.10527C1.0062 6.24436 1.17267 6.34879 1.35658 6.40967C1.54049 6.47055 1.73639 6.48607 1.92759 6.45492ZM2.1097 6.4185C2.28298 6.47817 2.46914 6.49004 2.6486 6.45287C2.82807 6.4157 2.99419 6.33085 3.12951 6.20725C3.26339 6.0859 3.36036 5.92929 3.40932 5.75536C3.45828 5.58143 3.45724 5.39722 3.40632 5.22386C3.23425 5.16401 3.04914 5.15205 2.8708 5.18926C2.69246 5.22647 2.52758 5.31145 2.39379 5.43511C2.26004 5.55665 2.16266 5.71295 2.1125 5.88657C2.06234 6.0602 2.06137 6.24435 2.1097 6.4185V6.4185ZM2.74344 8.73493C2.72571 8.52125 2.65857 8.31461 2.54733 8.13131C2.43609 7.94801 2.28378 7.79307 2.10241 7.67869C1.93636 7.55002 1.74123 7.46412 1.53419 7.42856C1.32715 7.39299 1.11454 7.40885 0.91506 7.47473C0.935486 7.68671 1.0038 7.89127 1.11485 8.07298C1.22589 8.2547 1.37677 8.40881 1.55609 8.52368C1.72237 8.65189 1.91715 8.73805 2.12387 8.77483C2.33059 8.81161 2.54314 8.79792 2.74344 8.73493ZM2.93283 8.6548C3.13095 8.69783 3.33725 8.68293 3.52713 8.61189C3.717 8.54085 3.88242 8.41666 4.00364 8.25416C4.12369 8.0958 4.1986 7.90788 4.2204 7.71036C4.2422 7.51284 4.21009 7.3131 4.12747 7.13237C3.93375 7.09522 3.7335 7.11306 3.5494 7.18387C3.3653 7.25468 3.20471 7.37562 3.08581 7.53301C2.96101 7.68856 2.88085 7.87511 2.8539 8.07271C2.82696 8.27031 2.85424 8.47151 2.93283 8.6548V8.6548ZM3.67584 11.0222C3.60293 10.7947 3.48005 10.5863 3.3162 10.4124C3.15235 10.2384 2.95168 10.1033 2.72887 10.017C2.52773 9.91847 2.3044 9.87405 2.08087 9.8881C1.85734 9.90215 1.64133 9.97418 1.4541 10.0971C1.52702 10.3247 1.6499 10.533 1.81375 10.707C1.9776 10.8809 2.17827 11.016 2.40107 11.1024C2.60276 11.1988 2.82576 11.242 3.04887 11.228C3.27199 11.214 3.48781 11.1431 3.67584 11.0222V11.0222ZM3.66856 9.61634C3.59012 9.82714 3.56569 10.0542 3.5975 10.2769C3.62931 10.4995 3.71634 10.7107 3.85067 10.8911C4.06475 10.8775 4.27008 10.8011 4.44107 10.6716C4.61206 10.5421 4.74113 10.3651 4.8122 10.1627C4.89369 9.95282 4.9204 9.72568 4.88981 9.50265C4.85922 9.27963 4.77235 9.06806 4.63738 8.8879C4.42229 8.90107 4.21581 8.97713 4.04357 9.10663C3.87134 9.23613 3.74093 9.41337 3.66856 9.61634ZM4.00364 11.9546C3.79316 11.8835 3.56755 11.8696 3.34995 11.9144C3.13234 11.9592 2.93056 12.0611 2.76529 12.2096C2.86723 12.4267 3.0162 12.6185 3.20141 12.7709C3.38661 12.9234 3.60341 13.0327 3.8361 13.091C4.04464 13.164 4.26898 13.1795 4.48558 13.1359C4.70218 13.0923 4.90307 12.9913 5.06716 12.8433C4.96683 12.6256 4.81936 12.433 4.63543 12.2793C4.45149 12.1256 4.23569 12.0147 4.00364 11.9546V11.9546ZM5.19099 12.6903C5.3987 12.6459 5.58879 12.5414 5.7377 12.3899C5.88661 12.2384 5.98779 12.0465 6.0287 11.8381C6.07881 11.6155 6.07311 11.3839 6.01211 11.1641C5.9511 10.9442 5.83669 10.7428 5.67905 10.5779C5.46902 10.6216 5.27666 10.7266 5.12627 10.8796C4.97587 11.0326 4.87419 11.2267 4.83406 11.4374C4.79224 11.6597 4.80273 11.8885 4.86468 12.106C4.92663 12.3235 5.03835 12.5235 5.19099 12.6903ZM7.17234 14.3002C7.00002 14.1074 6.7854 13.957 6.54529 13.861C6.30517 13.7649 6.04608 13.7258 5.78831 13.7466C5.55558 13.7507 5.32892 13.8216 5.13525 13.9507C4.94157 14.0798 4.789 14.2618 4.69565 14.475C4.86726 14.6692 5.08157 14.8209 5.32172 14.9182C5.56187 15.0155 5.82133 15.0558 6.07969 15.0359C6.31344 15.032 6.54106 14.9605 6.73499 14.8299C6.92892 14.6993 7.08083 14.5153 7.17234 14.3002V14.3002ZM7.25247 14.0744C7.44383 13.9318 7.59018 13.7372 7.67412 13.5138C7.75806 13.2903 7.77605 13.0475 7.72596 12.8142C7.69339 12.5582 7.60385 12.3128 7.46392 12.0959C7.32399 11.8791 7.13724 11.6964 6.91739 11.5613C6.7274 11.7051 6.58208 11.8998 6.49827 12.1228C6.41447 12.3459 6.39562 12.5881 6.44391 12.8215C6.47647 13.0775 6.56601 13.3229 6.70594 13.5397C6.84587 13.7566 7.03262 13.9393 7.25247 14.0744V14.0744ZM6.91739 15.8081C7.10665 16.0211 7.3424 16.1878 7.6064 16.2952C7.8704 16.4026 8.15557 16.4477 8.43983 16.4272C8.69883 16.4188 8.94976 16.3351 9.16193 16.1863C9.3741 16.0376 9.53831 15.8302 9.63446 15.5895C9.44739 15.3761 9.21285 15.2096 8.9497 15.1033C8.68654 14.997 8.40213 14.954 8.11931 14.9776C7.85989 14.984 7.60797 15.066 7.39447 15.2135C7.18096 15.3611 7.01516 15.5677 6.91739 15.8081V15.8081ZM9.31395 12.5738C9.10374 12.7303 8.94314 12.9441 8.8514 13.1896C8.75967 13.4351 8.7407 13.7018 8.79676 13.9578C8.83773 14.243 8.94295 14.515 9.10447 14.7535C9.266 14.992 9.4796 15.1907 9.72916 15.3346C9.93658 15.174 10.0949 14.9586 10.1863 14.7127C10.2777 14.4669 10.2985 14.2003 10.2464 13.9433C10.2064 13.6588 10.1016 13.3873 9.93989 13.1498C9.7782 12.9123 9.56403 12.7152 9.31395 12.5738V12.5738Z" fill="url(#paint0_linear_202_297)"/>
<path d="M12.0547 3.1591L10.5599 0.125977L9.06518 3.1591L5.72656 3.63917L8.1487 5.99584L7.57044 9.32355L10.5599 7.75244L13.5494 9.32355L12.9712 5.99584L15.3933 3.63917L12.0547 3.1591Z" fill="url(#paint1_linear_202_297)"/>
<defs>
<linearGradient id="paint0_linear_202_297" x1="10.5433" y1="3.30078" x2="10.5433" y2="16.432" gradientUnits="userSpaceOnUse">
<stop stop-color="#248DA0"/>
<stop offset="1" stop-color="#157182"/>
</linearGradient>
<linearGradient id="paint1_linear_202_297" x1="10.5599" y1="0.125977" x2="10.5599" y2="9.32355" gradientUnits="userSpaceOnUse">
<stop stop-color="#248DA0"/>
<stop offset="1" stop-color="#157182"/>
</linearGradient>
</defs>
</svg>
