<svg width="26" height="26" viewBox="0 0 26 26" fill="none" xmlns="http://www.w3.org/2000/svg">
<path d="M17.2795 8.50684H15.3516V10.4929H17.2795V8.50684Z" fill="white"/>
<path d="M16.0952 13.0575C16.0952 14.8218 14.6596 16.2573 12.8953 16.2573C11.1308 16.2573 9.69527 14.8218 9.69527 13.0575C9.69527 12.58 9.80334 12.1281 9.99159 11.7207H7.87695V17.2135C7.87695 17.7121 8.28263 18.1178 8.78125 18.1178H17.0094C17.508 18.1178 17.9137 17.7121 17.9137 17.2135V11.7209H15.7988C15.9871 12.1283 16.0952 12.58 16.0952 13.0575Z" fill="white"/>
<path d="M12.8954 14.9605C13.9446 14.9605 14.7985 14.1068 14.7985 13.0575C14.7985 12.5368 14.588 12.0648 14.248 11.7207H11.5425C11.2027 12.0646 10.9922 12.5368 10.9922 13.0575C10.9922 14.1068 11.8459 14.9605 12.8954 14.9605Z" fill="white"/>
<path d="M12.8941 0.579102C5.99084 0.579102 0.394531 6.17563 0.394531 13.0789C0.394531 19.9819 5.99084 25.5791 12.8941 25.5791C19.7974 25.5791 25.3941 19.9821 25.3941 13.0789C25.3939 6.17563 19.7974 0.579102 12.8941 0.579102ZM19.2093 17.2135C19.2093 18.4271 18.222 19.4146 17.0082 19.4146H8.78002C7.56644 19.4146 6.57893 18.4273 6.57893 17.2135V8.94752C6.57893 7.73394 7.56623 6.74643 8.78002 6.74643H17.0082C18.2218 6.74643 19.2093 7.73372 19.2093 8.94752V17.2135Z" fill="white"/>
</svg>
