<svg width="26" height="26" viewBox="0 0 26 26" fill="none" xmlns="http://www.w3.org/2000/svg">
<circle cx="12.6016" cy="13.0791" r="12.5" fill="white"/>
<g clip-path="url(#clip0_212_531)">
<path d="M19.9648 9.55711C19.796 10.0877 19.5685 10.5496 19.2835 10.969L19.2954 10.9502C19.0154 11.4169 18.681 11.9561 18.2923 12.5677C17.9589 13.0507 17.7825 13.3006 17.7629 13.3177C17.6766 13.4259 17.6166 13.5584 17.596 13.704L17.5954 13.7084C17.6123 13.8409 17.6735 13.9565 17.7629 14.0427L18.0129 14.3215C19.3504 15.6961 20.1027 16.6436 20.2698 17.164C20.2916 17.2215 20.3041 17.2877 20.3041 17.3571C20.3041 17.4784 20.2654 17.5902 20.1998 17.6821L20.201 17.6802C20.091 17.7934 19.9373 17.8634 19.7673 17.8634C19.7485 17.8634 19.7291 17.8627 19.711 17.8609H19.7135H18.0691C18.0685 17.8609 18.0673 17.8609 18.066 17.8609C17.8554 17.8609 17.6616 17.7871 17.5098 17.6646L17.5116 17.6659C17.2904 17.484 17.0935 17.2871 16.9173 17.0734L16.9116 17.0659C16.6237 16.7404 16.3683 16.4665 16.1454 16.244C15.4029 15.5381 14.855 15.1852 14.5016 15.1852C14.4885 15.184 14.4735 15.1834 14.4579 15.1834C14.3548 15.1834 14.2585 15.2152 14.1791 15.2696L14.181 15.2684C14.116 15.3496 14.0766 15.4546 14.0766 15.5677C14.0766 15.5902 14.0779 15.6115 14.081 15.6334V15.6309C14.0641 15.8271 14.0541 16.0552 14.0541 16.2859C14.0541 16.3602 14.0554 16.434 14.0573 16.5077V16.4971V17.2215C14.0635 17.2509 14.0673 17.2846 14.0673 17.319C14.0673 17.4702 13.9985 17.6052 13.891 17.6946L13.8904 17.6952C13.6485 17.8059 13.366 17.8709 13.0679 17.8709C13.0041 17.8709 12.9416 17.8677 12.8798 17.8621L12.8879 17.8627C11.9041 17.844 10.9916 17.5559 10.216 17.0702L10.2379 17.0827C9.29352 16.509 8.51102 15.7621 7.91477 14.8796L7.89789 14.8534C7.33164 14.1021 6.80352 13.2534 6.35352 12.3584L6.30977 12.2621C6.04664 11.7609 5.77414 11.1446 5.53914 10.5109L5.50164 10.3952C5.40602 10.1102 5.33664 9.77898 5.30789 9.43586L5.30664 9.42023C5.30664 9.1044 5.49247 8.94648 5.86414 8.94648H7.50789C7.52289 8.94523 7.54039 8.94461 7.55852 8.94461C7.71352 8.94461 7.85664 8.99773 7.96977 9.08711L7.96852 9.08586C8.09352 9.22273 8.18602 9.39086 8.23164 9.57836L8.23352 9.58586C8.53602 10.4402 8.85664 11.1577 9.22539 11.8452L9.18352 11.7596C9.48477 12.3659 9.81789 12.8877 10.1979 13.3696L10.1835 13.3502C10.5168 13.7594 10.7768 13.964 10.9635 13.964C10.9691 13.9646 10.976 13.9646 10.9835 13.9646C11.076 13.9646 11.1566 13.9146 11.2004 13.8396L11.201 13.8384C11.2473 13.7196 11.2741 13.5815 11.2741 13.4377C11.2741 13.4071 11.2729 13.3765 11.2704 13.3465V13.3502V10.9259C11.2573 10.6402 11.1873 10.3734 11.0704 10.134L11.0754 10.1459C10.9979 9.98086 10.9048 9.83836 10.7941 9.71148L10.796 9.71398C10.6935 9.61148 10.6235 9.47711 10.6016 9.32711L10.601 9.32336C10.601 9.21711 10.6498 9.12148 10.726 9.05898L10.7266 9.05836C10.8023 8.98898 10.9035 8.94711 11.0141 8.94711H11.0191H13.6104C13.6241 8.94523 13.6398 8.94461 13.656 8.94461C13.7779 8.94461 13.8873 8.99961 13.9598 9.08586L13.9604 9.08648C14.0248 9.20398 14.0629 9.34461 14.0629 9.49336C14.0629 9.51711 14.0616 9.54023 14.0598 9.56336V9.56023V12.7934C14.0585 12.8084 14.0579 12.8259 14.0579 12.8434C14.0579 12.9584 14.0898 13.0665 14.1448 13.1584L14.1435 13.1559C14.1891 13.2234 14.2654 13.2671 14.3516 13.2671H14.3523C14.4623 13.2596 14.5623 13.2234 14.6466 13.1659L14.6448 13.1671C14.8148 13.0502 14.961 12.9171 15.0879 12.7665L15.0904 12.7634C15.4698 12.3346 15.8198 11.8609 16.1248 11.3571L16.1491 11.3134C16.3641 10.9571 16.5966 10.5184 16.8073 10.0677L16.846 9.97586L17.1248 9.41836C17.2216 9.13961 17.4816 8.94336 17.7873 8.94336C17.7991 8.94336 17.811 8.94336 17.8229 8.94398H17.821H19.4654C19.9096 8.94398 20.0762 9.14836 19.9654 9.55711H19.9648Z" fill="#323C4B"/>
</g>
<defs>
<clipPath id="clip0_212_531">
<rect width="15" height="15" fill="white" transform="translate(5.30469 5.94238)"/>
</clipPath>
</defs>
</svg>
