<svg width="25" height="25" viewBox="0 0 25 25" fill="none" xmlns="http://www.w3.org/2000/svg">
<path d="M12.4405 0.579102H12.4345C5.81802 0.579102 0.437516 5.9611 0.437516 12.5791C0.433407 15.1066 1.23349 17.5699 2.72202 19.6126L1.22652 24.0706L5.83902 22.5961C7.79557 23.8942 10.0925 24.5841 12.4405 24.5791C19.057 24.5791 24.4375 19.1956 24.4375 12.5791C24.4375 5.9626 19.057 0.579102 12.4405 0.579102V0.579102Z" fill="white"/>
<path d="M19.4223 17.5244C19.1328 18.3419 17.9838 19.0199 17.0673 19.2179C16.4403 19.3514 15.6213 19.4579 12.8643 18.3149C9.33784 16.8539 7.06684 13.2704 6.88984 13.0379C6.72034 12.8054 5.46484 11.1404 5.46484 9.41838C5.46484 7.69638 6.33934 6.85788 6.69184 6.49788C6.98134 6.20238 7.45984 6.06738 7.91884 6.06738C8.06734 6.06738 8.20084 6.07488 8.32084 6.08088C8.67334 6.09588 8.85034 6.11688 9.08284 6.67338C9.37234 7.37088 10.0773 9.09288 10.1613 9.26988C10.2468 9.44688 10.3323 9.68688 10.2123 9.91938C10.0998 10.1594 10.0008 10.2659 9.82384 10.4699C9.64684 10.6739 9.47884 10.8299 9.30184 11.0489C9.13984 11.2394 8.95684 11.4434 9.16084 11.7959C9.36484 12.1409 10.0698 13.2914 11.1078 14.2154C12.4473 15.4079 13.5333 15.7889 13.9218 15.9509C14.2113 16.0709 14.5563 16.0424 14.7678 15.8174C15.0363 15.5279 15.3678 15.0479 15.7053 14.5754C15.9453 14.2364 16.2483 14.1944 16.5663 14.3144C16.8903 14.4269 18.6048 15.2744 18.9573 15.4499C19.3098 15.6269 19.5423 15.7109 19.6278 15.8594C19.7118 16.0079 19.7118 16.7054 19.4223 17.5244V17.5244Z" fill="#323C4B"/>
</svg>
